<svg xmlns="http://www.w3.org/2000/svg" version="1.1" xmlns:xlink="http://www.w3.org/1999/xlink" width="1000" height="1000"><metadata><rdf:RDF xmlns:rdf="http://www.w3.org/1999/02/22-rdf-syntax-ns#" xmlns:dc="http://purl.org/dc/elements/1.1/"><rdf:Description><dc:creator>RealFaviconGenerator</dc:creator><dc:source>https://realfavicongenerator.net</dc:source></rdf:Description></rdf:RDF></metadata><style>
    #light-icon {
      display: inline;
    }
    #dark-icon {
      display: none;
    }

    @media (prefers-color-scheme: dark) {
      #light-icon {
        display: none;
      }
      #dark-icon {
        display: inline;
      }
    }
  </style><g id="light-icon"><svg xmlns="http://www.w3.org/2000/svg" version="1.1" xmlns:xlink="http://www.w3.org/1999/xlink" width="1000" height="1000"><g clip-path="url(#SvgjsClipPath1039)"><rect width="1000" height="1000" fill="#ffffff"></rect><g transform="matrix(1.953125,0,0,1.953125,0,0)"><svg xmlns="http://www.w3.org/2000/svg" viewBox="0 0 512 512" width="512" height="512"><defs>
    <style>
      .bg { fill: #ffffff; }
      .brand-blue { stroke: #0052ff; fill: none; stroke-width: 18; stroke-linecap: round; stroke-linejoin: round; }
      .brand-green { fill: #00ff1a; stroke: #00ff1a; stroke-width: 4; stroke-linecap: round; }
    </style>
  <clipPath id="SvgjsClipPath1039"><rect width="1000" height="1000" x="0" y="0" rx="500" ry="500"></rect></clipPath></defs><rect width="512" height="512" class="bg"></rect><circle cx="256" cy="256" r="212" class="brand-blue"></circle><path d="M 180,210             C 185,185 220,150 290,150             C 365,150 400,150 400,150            A 16,16 0 0 1 410,174            C 390,195 350,215 290,215            C 250,215 225,240 225,260" class="brand-blue"></path><path d="M 152,286            C 142,320 120,365 135,380            C 155,400 190,380 205,350            C 225,310 240,290 270,290            C 290,290 285,250 300,240            C 315,230 330,280 345,280            C 365,280 360,250 350,250" class="brand-blue" stroke-width="20"></path><path d="M 172,232             C 166,236 156,254 150,265            C 146,272 153,278 158,274            C 164,270 174,252 178,242            C 181,235 176,229 172,232 Z" class="brand-green"></path></svg></g></g></svg></g><g id="dark-icon"><svg xmlns="http://www.w3.org/2000/svg" version="1.1" xmlns:xlink="http://www.w3.org/1999/xlink" width="1000" height="1000"><g clip-path="url(#SvgjsClipPath1040)"><rect width="1000" height="1000" fill="#ffffff"></rect><g transform="matrix(1.953125,0,0,1.953125,0,0)"><svg xmlns="http://www.w3.org/2000/svg" viewBox="0 0 512 512" width="512" height="512"><defs>
    <style>
      .bg { fill: #ffffff; }
      .brand-blue { stroke: #0052ff; fill: none; stroke-width: 18; stroke-linecap: round; stroke-linejoin: round; }
      .brand-green { fill: #00ff1a; stroke: #00ff1a; stroke-width: 4; stroke-linecap: round; }
    </style>
  <clipPath id="SvgjsClipPath1040"><rect width="1000" height="1000" x="0" y="0" rx="400" ry="400"></rect></clipPath></defs><rect width="512" height="512" class="bg"></rect><circle cx="256" cy="256" r="212" class="brand-blue"></circle><path d="M 180,210             C 185,185 220,150 290,150             C 365,150 400,150 400,150            A 16,16 0 0 1 410,174            C 390,195 350,215 290,215            C 250,215 225,240 225,260" class="brand-blue"></path><path d="M 152,286            C 142,320 120,365 135,380            C 155,400 190,380 205,350            C 225,310 240,290 270,290            C 290,290 285,250 300,240            C 315,230 330,280 345,280            C 365,280 360,250 350,250" class="brand-blue" stroke-width="20"></path><path d="M 172,232             C 166,236 156,254 150,265            C 146,272 153,278 158,274            C 164,270 174,252 178,242            C 181,235 176,229 172,232 Z" class="brand-green"></path></svg></g></g></svg></g></svg>